<svg version="1.0" xmlns="http://www.w3.org/2000/svg"
 width="182.000000pt" height="182.000000pt" viewBox="0 0 182.000000 182.000000"
 preserveAspectRatio="xMidYMid meet">
<metadata>
Created by potrace 1.16, written by Peter Selinger 2001-2019
</metadata>
<g transform="translate(0.000000,182.000000) scale(0.100000,-0.100000)"
fill="#000000" stroke="none">
<path d="M783 1446 c-29 -7 -81 -27 -117 -45 -56 -27 -73 -31 -150 -31 -83 0
-86 1 -86 23 0 38 -19 47 -95 47 -76 0 -95 -9 -95 -47 0 -18 -5 -23 -28 -23
-15 0 -38 -7 -50 -16 l-22 -15 0 -438 c0 -361 2 -441 14 -457 13 -18 32 -19
243 -25 223 -5 229 -6 279 -32 149 -78 337 -76 500 3 l61 30 200 0 c163 0 202
3 221 16 l22 15 0 444 0 444 -22 15 c-19 13 -57 16 -221 16 l-199 0 -71 34
c-40 19 -96 39 -125 45 -69 14 -193 13 -259 -3z m292 -106 c125 -43 238 -153
285 -277 47 -124 35 -284 -30 -398 -42 -73 -137 -160 -217 -198 -65 -31 -73
-32 -193 -32 -124 0 -126 0 -201 37 -87 42 -181 134 -218 212 -89 183 -58 395
79 536 132 136 318 181 495 120z m-607 -102 c-144 -189 -151 -451 -18 -657
l40 -62 -123 3 -122 3 -3 373 -2 372 126 0 126 0 -24 -32z m1110 -340 l-3
-373 -112 -3 -113 -3 40 62 c134 208 128 464 -17 657 l-24 32 116 0 115 0 -2
-372z"/>
<path d="M887 1255 c-38 -37 -11 -72 65 -85 73 -11 117 -32 164 -78 43 -42 72
-101 80 -169 8 -57 19 -73 50 -73 90 0 41 216 -73 321 -85 78 -245 125 -286
84z"/>
</g>
</svg>
